<svg width="72" height="79" viewBox="0 0 72 79" fill="none" xmlns="http://www.w3.org/2000/svg">
<path d="M28.568 50L18.348 31.45H15.478V50H3.50797V0.859998H23.598C27.4713 0.859998 30.7613 1.53666 33.468 2.89C36.2213 4.24333 38.2746 6.11 39.628 8.49C40.9813 10.8233 41.658 13.4367 41.658 16.33C41.658 19.5967 40.7246 22.5133 38.858 25.08C37.038 27.6467 34.3313 29.4667 30.738 30.54L42.078 50H28.568ZM15.478 22.98H22.898C25.0913 22.98 26.7246 22.4433 27.798 21.37C28.918 20.2967 29.478 18.78 29.478 16.82C29.478 14.9533 28.918 13.4833 27.798 12.41C26.7246 11.3367 25.0913 10.8 22.898 10.8H15.478V22.98Z" fill="white"/>
<path d="M55.2998 44.4C54.4132 42.7667 53.1298 41.53 51.4498 40.69C49.8165 39.8033 47.8798 39.36 45.6398 39.36C41.7665 39.36 38.6632 40.6433 36.3298 43.21C33.9965 45.73 32.8298 49.1133 32.8298 53.36C32.8298 57.8867 34.0432 61.4333 36.4698 64C38.9432 66.52 42.3265 67.78 46.6198 67.78C49.5598 67.78 52.0332 67.0333 54.0398 65.54C56.0932 64.0467 57.5865 61.9 58.5198 59.1H43.3298V50.28H69.3698V61.41C68.4832 64.3967 66.9665 67.1733 64.8198 69.74C62.7198 72.3067 60.0365 74.3833 56.7698 75.97C53.5032 77.5567 49.8165 78.35 45.7098 78.35C40.8565 78.35 36.5165 77.3 32.6898 75.2C28.9098 73.0533 25.9465 70.09 23.7998 66.31C21.6998 62.53 20.6498 58.2133 20.6498 53.36C20.6498 48.5067 21.6998 44.19 23.7998 40.41C25.9465 36.5833 28.9098 33.62 32.6898 31.52C36.4698 29.3733 40.7865 28.3 45.6398 28.3C51.5198 28.3 56.4665 29.7233 60.4798 32.57C64.5398 35.4167 67.2232 39.36 68.5298 44.4H55.2998Z" fill="white"/>
</svg>
