<svg width="100" height="100" viewBox="0 0 100 100" fill="none" xmlns="http://www.w3.org/2000/svg">
<path d="M45.8333 8.33337H54.1667V16.6667H56.25C57.9076 16.6667 59.4973 17.3252 60.6694 18.4973C61.8415 19.6694 62.5 21.2591 62.5 22.9167V37.5L60.6667 39.3334L67.5 51.1667C72.125 46.625 75 40.3334 75 33.3334H83.3333C83.3333 43.4167 78.875 52.4584 71.7917 58.5834L84.875 81.25L85.4167 90.5L77.625 85.4167L64.8333 63.2084C60.4167 65.4167 55.3333 66.6667 50 66.6667C44.6667 66.6667 39.5833 65.4167 35.1667 63.2084L22.375 85.4167L14.5833 90.5L15.125 81.25L39.3333 39.3334L37.5 37.5V22.9167C37.5 21.2591 38.1585 19.6694 39.3306 18.4973C40.5027 17.3252 42.0924 16.6667 43.75 16.6667H45.8333V8.33337ZM39.3333 55.9584C42.5833 57.5 46.2083 58.3334 50 58.3334C53.7917 58.3334 57.4167 57.5 60.6667 55.9584L54.5833 45.4167H54.5417C51.9583 47.9167 48.0417 47.9167 45.4583 45.4167H45.4167L39.3333 55.9584V55.9584ZM50 25C48.8949 25 47.8351 25.439 47.0537 26.2204C46.2723 27.0018 45.8333 28.0616 45.8333 29.1667C45.8333 30.2718 46.2723 31.3316 47.0537 32.113C47.8351 32.8944 48.8949 33.3334 50 33.3334C51.1051 33.3334 52.1649 32.8944 52.9463 32.113C53.7277 31.3316 54.1667 30.2718 54.1667 29.1667C54.1667 28.0616 53.7277 27.0018 52.9463 26.2204C52.1649 25.439 51.1051 25 50 25Z" fill="#345B63"/>
</svg>
