<svg width="100" height="100" viewBox="0 0 100 100" fill="none" xmlns="http://www.w3.org/2000/svg">
<g clip-path="url(#clip0_24:33)">
<path fill-rule="evenodd" clip-rule="evenodd" d="M35.0625 0C24.8666 0 16.6666 8.55417 16.6666 19.0333C16.6666 25.4042 19.7 31.0625 24.3625 34.5167C21.9595 36.317 20.0117 38.6553 18.6752 41.3441C17.3388 44.0329 16.6509 46.9974 16.6666 50C16.6666 56.375 19.7 62.0292 24.3625 65.4833C21.9595 67.2837 20.0117 69.622 18.6752 72.3108C17.3388 74.9996 16.6509 77.9641 16.6666 80.9667C16.6666 91.4458 24.8666 100 35.0625 100C45.2541 100 53.4583 91.4458 53.4583 80.9667V64.875C56.6805 67.5616 60.7422 69.0344 64.9375 69.0375C75.1333 69.0333 83.3333 60.4792 83.3333 50C83.3333 43.625 80.3041 37.9708 75.6375 34.5167C78.0405 32.7163 79.9883 30.378 81.3247 27.6892C82.6612 25.0004 83.3491 22.0359 83.3333 19.0333C83.3333 8.55417 75.1333 0 64.9375 0H35.0625V0ZM23.5791 19.0333C23.5791 12.4042 28.7541 7.09583 35.0625 7.09583H46.5416V30.9708H35.0625C28.7541 30.9708 23.5791 25.6583 23.5791 19.0333V19.0333ZM64.9375 30.9667H53.4583V7.09167H64.9375C71.25 7.09167 76.4208 12.4042 76.4208 19.0333C76.4208 25.6583 71.25 30.9667 64.9375 30.9667ZM23.5833 50C23.5833 43.375 28.7583 38.0625 35.0666 38.0625H46.5458V61.9375H35.0625C28.75 61.9375 23.5791 56.625 23.5791 50H23.5833ZM53.4583 50C53.4583 43.375 58.6333 38.0625 64.9416 38.0625C71.2541 38.0625 76.425 43.3708 76.425 50C76.425 56.625 71.2541 61.9375 64.9416 61.9375C58.6333 61.9375 53.4625 56.6292 53.4625 50H53.4583ZM23.5833 80.9667C23.5833 74.3417 28.7583 69.0333 35.0666 69.0333H46.5458V80.9667C46.5458 87.5958 41.3791 92.9042 35.0666 92.9042C28.7583 92.9042 23.5833 87.5958 23.5833 80.9667Z" fill="#345B63"/>
</g>
<defs>
<clipPath id="clip0_24:33">
<rect width="100" height="100" fill="white"/>
</clipPath>
</defs>
</svg>
