<svg width="100" height="100" viewBox="0 0 100 100" fill="none" xmlns="http://www.w3.org/2000/svg">
<g clip-path="url(#clip0_24:43)">
<path d="M50.7969 9.91252C42.0953 9.71242 33.5775 12.4331 26.6031 17.6403C19.6287 22.8474 14.5997 30.2409 12.3188 38.6406C12.5313 38.5594 12.0907 38.6906 12.3188 38.6406C-3.82809 49.2688 -4.02184 72.4281 11.2938 84.2313L11.3094 84.2L11.2782 84.3313C16.1736 88.0197 22.1425 90.0031 28.2719 89.9781H49.8219L49.9532 90.0906H71.5844C99.45 90.3188 110.647 54.25 87.5688 38.6406C85.5875 31.3082 81.5029 24.7162 75.8188 19.6781L75.6407 19.8563L75.6563 19.6438C68.7768 13.5734 59.9754 10.126 50.8032 9.9094L50.7969 9.91252ZM49.3 27.1969C54.475 27.0188 59.7969 28.7281 63.8188 31.9813C66.3025 34.0519 68.2895 36.6539 69.633 39.5952C70.9765 42.5365 71.6424 45.742 71.5813 48.975V51.1406C86.2938 50.8469 86.2938 73.0656 71.5813 72.7719H49.95L49.9188 72.8031V72.6406H28.2719C26.7407 72.6406 25.2282 72.3156 23.8282 71.6813C16.9438 68.5719 15.3 59.5219 20.6375 54.1688C25.9938 48.8313 35.025 50.475 38.15 57.3594L50.7 44.8094C46.5287 39.3723 40.5158 35.6452 33.7907 34.3281C33.8719 34.2969 33.9532 34.2313 34.0188 34.2469C35.9658 32.1058 38.3237 30.3785 40.9523 29.1678C43.5808 27.9572 46.4262 27.288 49.3188 27.2L49.3 27.1969Z" fill="#345B63"/>
</g>
<defs>
<clipPath id="clip0_24:43">
<rect width="100" height="100" fill="white"/>
</clipPath>
</defs>
</svg>
