<svg width="100" height="100" viewBox="0 0 100 100" fill="none" xmlns="http://www.w3.org/2000/svg">
<g clip-path="url(#clip0_24:13)">
<path d="M21.1667 0H25.675V4.45417H29.8V0H34.3084V13.4833H29.8V8.97083H25.675V13.4833H21.1709V0H21.1667Z" fill="#345B63"/>
<path d="M40.2333 4.47083H36.2667V0H48.7125V4.47083H44.7417V13.4833H40.2333V4.47083Z" fill="#345B63"/>
<path d="M50.6875 0H55.3875L58.2792 4.7375L61.1667 0H65.8667V13.4833H61.3792V6.8L58.2792 11.5958H58.2L55.0958 6.80417V13.4833H50.6875V0V0Z" fill="#345B63"/>
<path d="M68.1083 0H72.6208V9.02917H78.9542V13.4875H68.1083V0V0Z" fill="#345B63"/>
<path fill-rule="evenodd" clip-rule="evenodd" d="M21.025 91.9667L12.5 19.6542H87.5L78.9708 91.9583L49.9583 100L21.025 91.9667ZM38.2625 52.3833L37.4542 43.3H71.3917L72.1833 34.4333H27.7667L30.1583 61.2542H60.8958L59.8667 72.7542L49.975 75.4292H49.9667L40.0917 72.7625L39.4583 65.6917H30.55L31.7917 79.6167L49.9583 84.6583L68.1542 79.6167L70.3708 54.7667L70.5875 52.3875H38.2625V52.3833Z" fill="#345B63"/>
</g>
<defs>
<clipPath id="clip0_24:13">
<rect width="100" height="100" fill="white"/>
</clipPath>
</defs>
</svg>
