<svg width="100" height="100" viewBox="0 0 100 100" fill="none" xmlns="http://www.w3.org/2000/svg">
<path fill-rule="evenodd" clip-rule="evenodd" d="M0 0H100V100H0V0ZM76.4458 83.8333C71.8083 83.8333 69.1875 81.4167 67.175 78.125L59.5375 82.5625C62.2958 88.0125 67.9333 92.1708 76.6625 92.1708C85.5875 92.1708 92.2333 87.5375 92.2333 79.075C92.2333 71.2292 87.725 67.7417 79.7417 64.3125L77.3917 63.3083C73.3583 61.5583 71.6125 60.4208 71.6125 57.6C71.6125 55.3208 73.3625 53.575 76.1125 53.575C78.8083 53.575 80.5458 54.7125 82.1583 57.6L89.475 52.9042C86.3792 47.4583 82.0875 45.3792 76.1125 45.3792C67.7208 45.3792 62.35 50.7458 62.35 57.7958C62.35 65.4417 66.85 69.0625 73.6333 71.95L75.9833 72.9583C80.2708 74.8333 82.825 75.975 82.825 79.1958C82.825 81.8875 80.3375 83.8333 76.4458 83.8333V83.8333ZM40.0292 83.7708C36.8 83.7708 35.4542 81.5625 33.9792 78.9375L26.3292 83.5708C28.5458 88.2625 32.9042 92.1542 40.425 92.1542C48.7542 92.1542 54.4583 87.725 54.4583 77.9958V45.9125H45.0625V77.8708C45.0625 82.5667 43.1125 83.7708 40.025 83.7708H40.0292Z" fill="#345B63"/>
</svg>
