<svg width="100" height="100" viewBox="0 0 100 100" fill="none" xmlns="http://www.w3.org/2000/svg">
<g clip-path="url(#clip0_24:39)">
<path d="M100.537 97.55L98.4208 95.5333C97.4116 94.1966 96.2833 92.954 95.05 91.8208L95.0292 91.8041C93.7847 90.6736 92.4917 89.5986 91.15 88.5791C90.075 87.8403 88.5972 86.95 86.7167 85.9083C85.1907 85.231 83.9745 84.0058 83.3083 82.475L83.2917 82.4333L83.0917 82.3333C83.975 82.2458 84.7833 82.0833 85.5583 81.8541L85.4625 81.8791L87.8375 81.225C88.8208 80.9166 89.9583 80.7166 91.1375 80.6708H91.1625C92.4042 80.6208 93.575 80.4208 94.6917 80.0916L94.5875 80.1166C95.1264 79.9833 95.6805 79.8319 96.25 79.6625C96.8194 79.493 97.3069 79.3416 97.7125 79.2083V78.5041C97.3097 77.9014 96.8222 77.2125 96.25 76.4375C95.7193 75.7123 95.0991 75.0572 94.4042 74.4875L94.3833 74.4708C92.6361 72.9264 90.8264 71.4319 88.9542 69.9875C87.199 68.6238 85.3758 67.3499 83.4917 66.1708L83.2083 66.0041C82.1217 65.2938 80.9708 64.687 79.7708 64.1916L79.6292 64.1416C78.3847 63.6361 77.1583 63.0819 75.95 62.4791C75.5147 62.2659 75.058 62.0997 74.5875 61.9833L74.5417 61.975C74.0717 61.8815 73.6464 61.6336 73.3333 61.2708L73.3292 61.2666C72.7381 60.4819 72.2416 59.6302 71.85 58.7291L71.8167 58.6458C71.4139 57.7041 70.9778 56.8 70.5083 55.9333C69.5 53.9833 68.525 52.0014 67.5833 49.9875C66.6417 47.9736 65.7375 45.9569 64.8708 43.9375C64.268 42.593 63.7139 41.25 63.2083 39.9083C62.697 38.5407 62.0537 37.2262 61.2875 35.9833L61.3417 36.0791C59.6813 33.2324 57.8283 30.5024 55.7958 27.9083L55.9125 28.0666C54.0527 25.7111 52.0207 23.4967 49.8333 21.4416L49.8 21.4125C47.6489 19.3942 45.3781 17.5075 43 15.7625L42.7958 15.6166C40.3069 13.8083 37.5847 12.0278 34.6292 10.275C33.3728 9.54221 32.0191 8.99091 30.6083 8.63747L30.5 8.61247L25.8625 7.45414L23.2417 7.25414C22.3694 7.18747 21.4958 7.15414 20.6208 7.15414C20.0308 6.84532 19.4878 6.45388 19.0083 5.99164C18.5449 5.55082 18.0536 5.14025 17.5375 4.76247L17.4958 4.73331C14.7892 3.17148 11.9386 1.87383 8.98333 0.858308L8.62916 0.749974C7.89419 0.329481 7.07404 0.0796949 6.22945 0.0191095C5.38486 -0.0414759 4.53746 0.0886916 3.74999 0.399974L3.78749 0.387474C3.01206 0.691565 2.3132 1.16286 1.74066 1.76781C1.16811 2.37276 0.735972 3.09649 0.474993 3.88747L0.462493 3.92914C0.0203385 4.99093 -0.123314 6.15335 0.0470521 7.29084C0.217418 8.42832 0.695327 9.49765 1.42916 10.3833L1.42083 10.3708C2.93194 12.3847 4.09027 13.968 4.89583 15.1208C5.4986 15.9291 6.12083 16.7694 6.76249 17.6416C7.34999 18.425 7.87083 19.3208 8.29166 20.2666L8.32499 20.3541C8.55833 20.85 8.76249 21.4416 8.91249 22.05L8.92499 22.1166C9.05833 22.6889 9.22638 23.3111 9.42916 23.9833C10.0319 25.5278 10.6028 27.1111 11.1417 28.7333C11.7292 30.5041 12.3792 32.0041 13.1333 33.4333L13.0542 33.2666C13.4569 34.0055 13.8611 34.7277 14.2667 35.4333C14.6722 36.1389 15.1083 36.8277 15.575 37.5C15.8396 37.8993 16.181 38.242 16.5792 38.5083L16.5917 38.5166C16.8003 38.6663 16.9722 38.8615 17.0942 39.0875C17.2162 39.3135 17.2851 39.5642 17.2958 39.8208V39.825C16.8042 40.5552 16.4942 41.3923 16.3917 42.2666L16.3875 42.2916C16.2568 43.2731 16.0435 44.2418 15.75 45.1875L15.7833 45.0625C14.8032 48.0633 14.3094 51.2015 14.3208 54.3583C14.3208 55.4333 14.375 56.4916 14.4875 57.5375L14.475 57.4083C14.725 61.4 15.9292 65.0666 17.8583 68.2416L17.8 68.1375C18.6208 69.3666 19.5 70.4375 20.4708 71.4166C21.0348 72.051 21.7946 72.4788 22.6295 72.6321C23.4644 72.7853 24.3266 72.6552 25.0792 72.2625L25.0583 72.2708C25.7804 72.0163 26.4104 71.5527 26.8681 70.9391C27.3259 70.3255 27.5909 69.5896 27.6292 68.825V68.8166C27.8292 66.8416 28.1292 65.075 28.5417 63.35L28.4875 63.6291C28.5931 63.3481 28.6467 63.0502 28.6458 62.75L28.6375 62.5625V62.5708C28.6042 62.268 28.7889 61.9819 29.1917 61.7125V61.9125C29.5944 62.8541 30.0139 63.7944 30.45 64.7333C30.8861 65.6722 31.3389 66.6125 31.8083 67.5541C33.0375 69.425 34.3417 71.0583 35.775 72.5625L35.7625 72.55C37.1883 74.0897 38.7611 75.4866 40.4583 76.7208L40.55 76.7833C41.4333 77.4583 42.2083 78.1875 42.9083 78.9833L42.925 79C43.5833 79.775 44.3708 80.4125 45.2583 80.8916L45.3 80.9125V80.8125H45.5C45.3419 80.4586 45.0804 80.1608 44.75 79.9583L44.7417 79.9541C44.436 79.7856 44.1422 79.5963 43.8625 79.3875L43.8833 79.4C43.2805 78.7972 42.6583 78.125 42.0167 77.3833C41.375 76.6416 40.7875 75.9361 40.2542 75.2666C38.8431 73.3166 37.4972 71.2791 36.2167 69.1541C34.9361 67.0291 33.7264 64.8694 32.5875 62.675C32.0486 61.6 31.5278 60.4916 31.025 59.35C30.5222 58.2083 30.0347 57.1 29.5625 56.025C29.3487 55.5881 29.2133 55.117 29.1625 54.6333V54.6125C29.1512 54.3836 29.0808 54.1616 28.9582 53.968C28.8355 53.7745 28.6647 53.6161 28.4625 53.5083L28.4542 53.5041C27.9771 54.3242 27.4066 55.0862 26.7542 55.775L26.7583 55.7708C26.0891 56.476 25.5502 57.2942 25.1667 58.1875L25.1458 58.2416C24.5221 59.7804 24.1168 61.3989 23.9417 63.05L23.9333 63.1291C23.7333 64.9097 23.5319 66.7402 23.3292 68.6208L23.1292 68.7208L23.0292 68.8208C22.5076 68.7162 22.016 68.4961 21.5906 68.1767C21.1652 67.8573 20.8168 67.4467 20.5708 66.975L20.5625 66.9541C20.0569 65.9791 19.6042 65.0208 19.2042 64.0791C18.1127 61.2233 17.5166 58.2022 17.4417 55.1458V55.1083C17.2253 51.8425 17.6296 48.5652 18.6333 45.45L18.5833 45.6333C18.7833 44.8944 19.2194 43.65 19.8917 41.9C20.5639 40.15 20.6986 38.9403 20.2958 38.2708C20.0971 37.6082 19.7142 37.0158 19.1917 36.5625L19.1875 36.5583C18.6895 36.127 18.223 35.6605 17.7917 35.1625L17.7792 35.1458C17.3097 34.468 16.8569 33.7458 16.4208 32.9791C15.9847 32.2125 15.5986 31.4569 15.2625 30.7125C14.4866 28.8766 13.827 26.9937 13.2875 25.075L13.1958 24.7041C12.603 22.5602 11.8423 20.4662 10.9208 18.4416L11.0292 18.7083C10.5981 17.7189 10.0527 16.7834 9.40416 15.9208L9.42916 15.9541C8.75138 15.0486 8.14583 14.1916 7.61249 13.3833C6.93472 12.5111 6.26249 11.6708 5.59583 10.8625C4.90113 10.0211 4.30554 9.10253 3.82083 8.12497L3.78333 8.04164C3.57014 7.60637 3.40392 7.14962 3.28749 6.67914L3.27916 6.63331C3.20758 6.3966 3.18876 6.14708 3.22403 5.90232C3.25931 5.65755 3.34782 5.4235 3.48333 5.21664L3.47916 5.22497C3.52371 4.99967 3.62887 4.79078 3.78333 4.62081C3.95202 4.47003 4.15758 4.36654 4.37916 4.32081H4.38749C4.71623 4.1076 5.09415 3.98224 5.48515 3.95671C5.87614 3.93118 6.26715 4.00633 6.62083 4.17497L6.60833 4.17081C7.52083 4.42914 8.25833 4.68747 8.97916 4.98331L8.82916 4.92914C10.1042 5.46803 11.2805 5.98886 12.3583 6.49164C13.6 7.08331 14.6583 7.70831 15.6583 8.40414L15.5833 8.35414C16.1222 8.69025 16.6597 9.0597 17.1958 9.46247C17.7319 9.86525 18.3028 10.2694 18.9083 10.675H20.3208C21.3958 10.675 22.5375 10.7264 23.7458 10.8291C24.9667 10.925 26.0958 11.1541 27.1708 11.5125L27.0708 11.4833C29.075 12.0791 30.7958 12.7833 32.4292 13.6291L32.2583 13.55C33.9055 14.3889 35.468 15.2791 36.9458 16.2208C39.4 17.75 41.5208 19.3166 43.5167 21.0291L43.4458 20.9708C45.5292 22.7541 47.4208 24.5833 49.1958 26.5166L49.2375 26.5666C50.9708 28.4583 52.625 30.5125 54.1375 32.6666L54.2667 32.8625C55.6583 34.8291 57.0625 37.1041 58.325 39.4625L58.5 39.8166C58.872 40.5396 59.1977 41.2856 59.475 42.05L59.5208 42.1875C59.7903 42.9597 60.0917 43.7514 60.425 44.5625C61.1639 46.243 61.9555 47.9389 62.8 49.65C63.6444 51.3611 64.4361 53.025 65.175 54.6416L67.3917 59.4791C68.1708 61.1708 69.0417 62.6291 70.0542 63.975L70.0083 63.9125C70.8542 64.8166 71.9833 65.45 73.25 65.6708L73.2833 65.675C74.8167 66.0583 76.1083 66.4916 77.3583 67.0041L77.1625 66.9333C77.7583 67.2041 78.525 67.4916 79.3125 67.7458L79.4792 67.7916C80.3625 68.0625 81.1292 68.4208 81.8333 68.8708L81.7958 68.85C83.1583 69.6125 84.3125 70.3625 85.4125 71.1791L85.325 71.1166C86.4667 71.9555 87.6083 72.7472 88.75 73.4916C89.2889 73.8944 90.193 74.4819 91.4625 75.2541C92.7319 76.0264 93.4042 76.7486 93.4792 77.4208C90.9263 77.3323 88.3705 77.4536 85.8375 77.7833L86.0708 77.7583C83.9554 78.033 81.8842 78.5792 79.9083 79.3833L80.075 79.325C79.5513 79.547 79.0107 79.7268 78.4583 79.8625L78.3792 79.8791C78.0922 79.9204 77.8272 80.0564 77.6264 80.2655C77.4255 80.4746 77.3004 80.7449 77.2708 81.0333V81.0375C77.525 81.3541 77.7292 81.7208 77.8667 82.1208L77.875 82.1458C78.0167 82.5708 78.1875 82.9375 78.3958 83.2791L78.3833 83.2541C78.8792 84.1333 79.4125 84.8916 80.0125 85.5916L79.9958 85.5708C80.5833 86.2958 81.2458 86.925 81.9792 87.4625L82.0083 87.4833C82.6861 88.0222 83.3917 88.5764 84.125 89.1458C84.7958 89.6708 85.5542 90.1875 86.3417 90.6541L86.4417 90.7083C87.625 91.4333 89 92.125 90.4333 92.7041L90.625 92.7708C92.1833 93.3958 93.5208 94.1208 94.7625 94.9833L94.6958 94.9375C95.5042 95.4069 96.3097 95.9277 97.1125 96.5C97.9153 97.0722 98.6875 97.6264 99.4292 98.1625C99.7333 98.4625 100 98.7958 100.225 99.1583L100.237 99.1791C100.622 99.6224 101.156 99.9086 101.737 99.9833H101.75V99.7833C101.382 99.5045 101.113 99.1144 100.983 98.6708L100.979 98.6541C100.884 98.253 100.726 97.8692 100.512 97.5166L100.521 97.5333L100.537 97.55ZM23.1375 17.5291C22.5986 17.5291 22.0944 17.5458 21.625 17.5791C21.167 17.6086 20.7147 17.6968 20.2792 17.8416L20.3167 17.8291V17.9291H20.5167C20.7861 18.3319 21.125 18.7847 21.5333 19.2875C21.9417 19.7903 22.3111 20.2778 22.6417 20.75L24.2542 24.075L24.4542 23.975C24.9234 23.6372 25.2874 23.1735 25.5042 22.6375L25.5125 22.6166C25.7292 22.0375 25.8542 21.3625 25.8542 20.6625L25.85 20.4375V20.45C25.6611 20.2662 25.5084 20.0485 25.4 19.8083L25.3958 19.7958L25.0583 19.0375C24.8422 18.6923 24.5332 18.415 24.1667 18.2375L24.1542 18.2333C23.7798 18.0545 23.4365 17.8168 23.1375 17.5291V17.5291Z" fill="#345B63"/>
</g>
<defs>
<clipPath id="clip0_24:39">
<rect width="100" height="100" fill="white"/>
</clipPath>
</defs>
</svg>
