<svg width="100" height="100" viewBox="0 0 100 100" fill="none" xmlns="http://www.w3.org/2000/svg">
<path d="M50 91.6042C48.8542 91.6042 47.7833 91.2958 46.7833 90.7625L36.6208 84.7292C35.1 83.8833 35.8625 83.575 36.3208 83.4208C38.3875 82.7333 38.7708 82.5833 40.9083 81.3667C41.1417 81.2125 41.4458 81.2833 41.6792 81.4375L49.4708 86.1042C49.7792 86.2542 50.1625 86.2542 50.3917 86.1042L80.8875 68.45C81.1958 68.3 81.3458 67.9917 81.3458 67.6083V32.3667C81.3458 31.9875 81.1958 31.6792 80.8875 31.5292L50.3917 13.95C50.0875 13.7958 49.7042 13.7958 49.4708 13.95L18.9667 31.525C18.6625 31.675 18.5083 32.0625 18.5083 32.3625V67.6C18.5083 67.9042 18.6625 68.2917 18.9667 68.4417L27.3 73.2625C31.8083 75.5458 34.6417 72.8667 34.6417 70.2V35.425C34.6417 34.9667 35.0208 34.5042 35.5583 34.5042H39.4583C39.9083 34.5042 40.375 34.8875 40.375 35.425V70.2042C40.375 76.2417 37.0917 79.7625 31.3583 79.7625C29.6 79.7625 28.225 79.7625 24.325 77.8458L16.3042 73.2667C15.3269 72.6986 14.5159 71.8839 13.9521 70.9041C13.3884 69.9243 13.0917 68.8137 13.0917 67.6833V32.4417C13.0917 30.15 14.3125 28.0083 16.3042 26.8625L46.7875 9.20834C47.7771 8.67911 48.882 8.40222 50.0042 8.40222C51.1264 8.40222 52.2313 8.67911 53.2208 9.20834L83.7083 26.8625C85.7042 28.0042 86.9208 30.15 86.9208 32.4417V67.6833C86.9208 69.9708 85.7 72.1125 83.7083 73.2667L53.2208 90.9167C52.2167 91.375 51.0708 91.6042 50 91.6042V91.6042ZM59.4 67.3708C46.025 67.3708 43.275 61.2542 43.275 56.0625C43.275 55.6042 43.6583 55.1417 44.1917 55.1417H48.1667C48.625 55.1417 49.0042 55.4458 49.0042 55.9083C49.6167 59.9542 51.3708 61.9458 59.4792 61.9458C65.8958 61.9458 68.6542 60.4875 68.6542 57.05C68.6542 55.0625 67.8833 53.6125 57.875 52.6208C49.5458 51.7875 44.35 49.9417 44.35 43.2958C44.35 37.1083 49.5458 33.4375 58.2625 33.4375C68.0417 33.4375 72.8583 36.8083 73.4667 44.1375C73.4594 44.3848 73.3781 44.6243 73.2333 44.825C73.0792 44.975 72.8542 45.1292 72.625 45.1292H68.6542C68.4579 45.125 68.2686 45.0556 68.1162 44.9318C67.9638 44.8081 67.8569 44.6371 67.8125 44.4458C66.8917 40.2292 64.525 38.8625 58.2625 38.8625C51.225 38.8625 50.3833 41.3083 50.3833 43.1417C50.3833 45.3542 51.3708 46.0417 60.8583 47.2667C70.2583 48.4875 74.6917 50.2458 74.6917 56.825C74.6083 63.5542 69.1125 67.3708 59.4 67.3708V67.3708Z" fill="#345B63"/>
</svg>
