<svg width="100" height="100" viewBox="0 0 100 100" fill="none" xmlns="http://www.w3.org/2000/svg">
<g clip-path="url(#clip0_24:30)">
<path d="M50 22.9166C21.9625 22.9166 0 34.8125 0 50C0 65.1875 21.9625 77.0833 50 77.0833C78.0375 77.0833 100 65.1875 100 50C100 34.8125 78.0375 22.9166 50 22.9166ZM44.8083 31.25H50.2667L48.5333 39.5833H53.4083C56.5 39.5833 58.575 40.0166 59.7583 41.0958C60.9125 42.1625 61.2625 43.9125 60.8 46.2958L58.6333 56.25H53.0833L55.0792 47.0458C55.3208 45.7833 55.225 44.9041 54.8 44.4416C54.3792 43.9791 53.45 43.75 52.0583 43.75H47.6875L45.05 56.25H39.5833L44.8083 31.25V31.25ZM20.8333 39.5833H31.9417C37.2375 39.5833 40.4458 43.1333 39.1917 48.4291C37.7333 54.5833 33.8333 56.25 26.65 56.25H23.2167L22.1292 62.5H16.6083L20.8333 39.5833ZM64.5833 39.5833H75.6917C80.9875 39.5833 84.1958 43.1333 82.9417 48.4291C81.4833 54.5833 77.5792 56.25 70.4 56.25H66.9667L65.8792 62.5H60.3583L64.5833 39.5833ZM25.5625 43.75L23.9917 52.0833H27.5542C30.6375 52.0833 33.5042 51.7333 33.9833 47.1333C34.1625 45.3541 33.4208 43.75 29.8583 43.75H25.5625ZM69.3125 43.75L67.7417 52.0833H71.3042C74.3875 52.0833 77.2542 51.7333 77.7333 47.1333C77.9125 45.3541 77.175 43.75 73.6083 43.75H69.3125V43.75Z" fill="#345B63"/>
</g>
<defs>
<clipPath id="clip0_24:30">
<rect width="100" height="100" fill="white"/>
</clipPath>
</defs>
</svg>
