<svg width="100" height="100" viewBox="0 0 100 100" fill="none" xmlns="http://www.w3.org/2000/svg">
<g clip-path="url(#clip0_24:6)">
<path d="M100 48.7041C100 42.0791 91.7042 35.8 78.9833 31.9083C81.9208 18.9458 80.6167 8.62913 74.8667 5.32496C73.4734 4.54463 71.8965 4.15184 70.3 4.18746V8.72913C71.2375 8.72913 71.9917 8.91663 72.625 9.26246C75.3958 10.8541 76.6 16.9041 75.6625 24.6916C75.4375 26.6083 75.0708 28.625 74.6208 30.6833C70.361 29.6568 66.0375 28.9149 61.6792 28.4625C59.0827 24.8803 56.25 21.4755 53.2 18.2708C59.8458 12.0958 66.0833 8.71246 70.325 8.71246V4.16663C64.7167 4.16663 57.3792 8.16246 49.9583 15.0916C42.5417 8.20829 35.2 4.24996 29.5958 4.24996V8.79163C33.8167 8.79163 40.075 12.1583 46.7208 18.2916C43.8667 21.2916 41.0125 24.6916 38.3 28.4625C33.9326 28.9098 29.6015 29.6589 25.3375 30.7041C24.8667 28.6666 24.5208 26.6916 24.275 24.7958C23.3167 17.0041 24.5 10.9541 27.2542 9.34579C27.8625 8.97913 28.6583 8.81246 29.5958 8.81246V4.27079C27.8875 4.27079 26.3333 4.63746 24.9917 5.40829C19.2625 8.71246 17.9792 19.0041 20.9333 31.9291C8.25417 35.8458 0 42.1 0 48.7041C0 55.3291 8.29583 61.6083 21.0167 65.4958C18.0792 78.4625 19.3833 88.7791 25.1333 92.0791C26.4583 92.8541 28.0083 93.2208 29.7167 93.2208C35.325 93.2208 42.6625 89.225 50.0833 82.2958C57.5 89.1833 64.8375 93.1375 70.4458 93.1375C72.0546 93.1714 73.6435 92.7774 75.05 91.9958C80.7792 88.6958 82.0625 78.4041 79.1083 65.4791C91.7458 61.5875 100 55.3083 100 48.7041ZM73.4583 35.1083C72.6666 37.8327 71.7489 40.5189 70.7083 43.1583C69.0048 39.8448 67.1344 36.6198 65.1042 33.4958C68 33.925 70.7917 34.4541 73.4625 35.1083H73.4583ZM64.125 56.8166C62.5375 59.5666 60.9042 62.1791 59.2125 64.6041C53.0969 65.1431 46.946 65.1501 40.8292 64.625C37.3206 59.6132 34.2522 54.3073 31.6583 48.7666C34.2483 43.2129 37.3036 37.8883 40.7917 32.85C46.9058 32.3098 53.0553 32.3015 59.1708 32.825C60.8625 35.25 62.5167 37.8416 64.1042 40.575C65.6542 43.2416 67.0625 45.95 68.3458 48.6833C67.0483 51.4498 65.6402 54.1631 64.125 56.8166V56.8166ZM70.7083 54.1666C71.8083 56.8958 72.75 59.6291 73.5208 62.2791C70.8542 62.9333 68.0375 63.4833 65.125 63.9083C67.1468 60.7559 69.0103 57.5046 70.7083 54.1666V54.1666ZM50.0417 75.9166C48.1458 73.9583 46.25 71.7791 44.375 69.3916C46.2083 69.475 48.0833 69.5375 49.9792 69.5375C51.8958 69.5375 53.7917 69.4958 55.6458 69.3916C53.8125 71.7791 51.9167 73.9583 50.0417 75.9166ZM34.875 63.9083C32.0656 63.5012 29.2765 62.9645 26.5167 62.3C27.2708 59.6708 28.2083 56.9583 29.2667 54.25C30.1042 55.875 30.9833 57.5083 31.9417 59.1416C32.9 60.7708 33.875 62.3625 34.875 63.9083ZM49.9375 21.4916C51.8333 23.45 53.7292 25.6291 55.6042 28.0166C53.7708 27.9333 51.8958 27.8708 50 27.8708C48.0833 27.8708 46.1875 27.9125 44.3333 28.0166C46.1667 25.6291 48.0625 23.45 49.9375 21.4916ZM34.8542 33.5C32.8328 36.6455 30.9694 39.8898 29.2708 43.2208C28.2009 40.5644 27.2623 37.8569 26.4583 35.1083C29.125 34.475 31.9417 33.925 34.8542 33.5ZM16.4083 59.0166C9.19167 55.9416 4.525 51.9041 4.525 48.7041C4.525 45.5041 9.19167 41.4458 16.4083 38.3916C18.1583 37.6375 20.075 36.9625 22.0542 36.3333C23.2167 40.325 24.7458 44.4833 26.6375 48.7458C24.8515 52.7549 23.3411 56.8811 22.1167 61.0958C20.181 60.4965 18.276 59.8026 16.4083 59.0166V59.0166ZM27.375 88.1416C24.6042 86.5583 23.4 80.5 24.3375 72.7166C24.5625 70.8 24.9292 68.7791 25.3792 66.7208C29.3708 67.7 33.7333 68.4541 38.3208 68.9458C40.9174 72.5278 43.7501 75.9326 46.8 79.1375C40.1542 85.3125 33.9167 88.6958 29.675 88.6958C28.8748 88.7045 28.0847 88.5156 27.375 88.1458V88.1416ZM75.725 72.6125C76.6833 80.4 75.5 86.4541 72.7458 88.0625C72.1375 88.4291 71.3417 88.5916 70.4042 88.5916C66.1833 88.5916 59.925 85.2291 53.2792 79.0916C56.1333 76.1 58.9875 72.6958 61.7 68.925C66.0674 68.4776 70.3985 67.7286 74.6625 66.6833C75.1333 68.7416 75.4958 70.7166 75.725 72.6125V72.6125ZM83.5708 59.0166C81.8208 59.7708 79.9042 60.4458 77.925 61.075C76.6791 56.8388 75.1478 52.6918 73.3417 48.6625C75.2167 44.425 76.7208 40.2875 77.8625 36.3125C79.8833 36.9416 81.7958 37.6375 83.5917 38.3916C90.8083 41.4666 95.475 45.5041 95.475 48.7041C95.4542 51.9041 90.7875 55.9625 83.5708 59.0166V59.0166Z" fill="#345B63"/>
<path d="M49.9792 58.0209C52.4501 58.0209 54.8199 57.0393 56.5671 55.2921C58.3143 53.5449 59.2959 51.1752 59.2959 48.7042C59.2959 46.2333 58.3143 43.8636 56.5671 42.1164C54.8199 40.3691 52.4501 39.3876 49.9792 39.3876C47.5083 39.3876 45.1385 40.3691 43.3913 42.1164C41.6441 43.8636 40.6625 46.2333 40.6625 48.7042C40.6625 51.1752 41.6441 53.5449 43.3913 55.2921C45.1385 57.0393 47.5083 58.0209 49.9792 58.0209V58.0209Z" fill="#345B63"/>
</g>
<defs>
<clipPath id="clip0_24:6">
<rect width="100" height="100" fill="white"/>
</clipPath>
</defs>
</svg>
